<?xml version="1.0" encoding="UTF-8"?>
<svg version="1.1" xmlns="http://www.w3.org/2000/svg" width="185" height="182">
<path d="M0 0 C0 0.66 0 1.32 0 2 C1.216875 2.103125 2.43375 2.20625 3.6875 2.3125 C7.49999739 2.635593 9.76106919 4.01236489 13 6 C15.1080799 6.87525343 17.23465707 7.70690381 19.375 8.5 C26.6 11.21346154 26.6 11.21346154 30.125 12.75 C32.98765386 14.04491895 32.98765386 14.04491895 36 15 C36 15.66 36 16.32 36 17 C36.886875 17.144375 37.77375 17.28875 38.6875 17.4375 C41.47117646 17.91019978 44.23483757 18.43070185 47 19 C47 19.66 47 20.32 47 21 C48.3921875 21.2165625 48.3921875 21.2165625 49.8125 21.4375 C53 22 53 22 56 23 C56 23.66 56 24.32 56 25 C56.72960937 25.06832031 57.45921875 25.13664062 58.2109375 25.20703125 C61.83041984 26.23609976 63.17039334 27.8659676 65.625 30.6875 C66.38039063 31.53699219 67.13578125 32.38648438 67.9140625 33.26171875 C73.12106561 40.0971292 74.15706853 46.15500036 74.11352539 54.54418945 C74.11367142 55.28619095 74.11381744 56.02819244 74.1139679 56.79267883 C74.11327404 59.2329099 74.1055064 61.6730636 74.09765625 64.11328125 C74.0957902 65.81007343 74.09436718 67.50686615 74.09336853 69.20365906 C74.0895581 73.6604665 74.07974043 78.11724113 74.06866455 82.57403564 C74.0584187 87.12552446 74.05386412 91.67701859 74.04882812 96.22851562 C74.03811681 105.15235813 74.02105813 114.07617633 74 123 C77.465 122.505 77.465 122.505 81 122 C81 121.34 81 120.68 81 120 C81.56847656 119.81824219 82.13695313 119.63648438 82.72265625 119.44921875 C86.5174852 118.21384038 90.23299855 116.95023084 93.875 115.3125 C97 114 97 114 100 114 C100 113.34 100 112.68 100 112 C100.65226562 111.81824219 101.30453125 111.63648438 101.9765625 111.44921875 C105.96872624 110.30103006 109.64851739 109.1757413 113.375 107.3125 C116 106 116 106 120 106 C120 105.34 120 104.68 120 104 C124.455 103.01 124.455 103.01 129 102 C129 101.34 129 100.68 129 100 C130.1446875 99.319375 130.1446875 99.319375 131.3125 98.625 C134.16255345 96.90171186 135.31911659 95.84128565 137 93 C137.50317193 89.90848769 137.50317193 89.90848769 137.51171875 86.484375 C137.54716797 85.23398438 137.58261719 83.98359375 137.61914062 82.6953125 C137.65297852 80.74238281 137.65297852 80.74238281 137.6875 78.75 C137.72166016 77.43257813 137.75582031 76.11515625 137.79101562 74.7578125 C137.87350706 71.50529322 137.9426567 68.25304404 138 65 C137.23300781 65.30808594 136.46601563 65.61617188 135.67578125 65.93359375 C130.05390682 68.17413641 124.99730869 69.37958876 119 70 C119 70.66 119 71.32 119 72 C113.65749067 74.79845727 109.09579953 77 103 77 C102.67 77.66 102.34 78.32 102 79 C100.07421875 80.0703125 100.07421875 80.0703125 97.6875 81.125 C96.90761719 81.47820312 96.12773438 81.83140625 95.32421875 82.1953125 C93 83 93 83 89 83 C89 82.34 89 81.68 89 81 C88.34 81 87.68 81 87 81 C86.94608007 79.20866022 86.90724429 77.41686101 86.875 75.625 C86.85179688 74.62726563 86.82859375 73.62953125 86.8046875 72.6015625 C87 70 87 70 89 68 C89.99 68 90.98 68 92 68 C92.33 67.34 92.66 66.68 93 66 C96.0318856 64.11813998 97.24517355 64 101 64 C101 63.34 101 62.68 101 62 C101.56847656 61.81824219 102.13695312 61.63648438 102.72265625 61.44921875 C106.50218706 60.21882057 110.19434738 58.96426532 113.8125 57.3125 C117 56 117 56 121 56 C121 55.34 121 54.68 121 54 C131 50 131 50 133.76953125 49.1796875 C134.87361328 48.59574219 134.87361328 48.59574219 136 48 C137.09773738 44.17262486 137.18974347 40.34945441 137.31640625 36.38671875 C137.35830078 35.13955078 137.40019531 33.89238281 137.44335938 32.60742188 C137.48267578 31.31384766 137.52199219 30.02027344 137.5625 28.6875 C137.62727539 26.71813477 137.62727539 26.71813477 137.69335938 24.70898438 C137.79927227 21.47275712 137.90134885 18.23645542 138 15 C136.02 15 134.04 15 132 15 C131.67 15.66 131.34 16.32 131 17 C127.9681144 18.88186002 126.75482645 19 123 19 C122.67 19.66 122.34 20.32 122 21 C120.15234375 21.6328125 120.15234375 21.6328125 117.9375 22.125 C117.20402344 22.29257812 116.47054687 22.46015625 115.71484375 22.6328125 C115.14894531 22.75398438 114.58304688 22.87515625 114 23 C114 23.66 114 24.32 114 25 C110.7 25.66 107.4 26.32 104 27 C104 27.66 104 28.32 104 29 C101.03 29.66 98.06 30.32 95 31 C95 31.66 95 32.32 95 33 C92.125 33.625 92.125 33.625 89 34 C87 32 87 32 86.8046875 29.3984375 C86.82789062 28.40070312 86.85109375 27.40296875 86.875 26.375 C86.89304687 25.37210938 86.91109375 24.36921875 86.9296875 23.3359375 C86.95289062 22.56507812 86.97609375 21.79421875 87 21 C87.66 21 88.32 21 89 21 C89.495 19.515 89.495 19.515 90 18 C92.265625 16.7890625 92.265625 16.7890625 95.25 15.625 C96.33539063 15.19445313 97.42078125 14.76390625 98.5390625 14.3203125 C100.80304716 13.45662535 103.06861689 12.59707888 105.3359375 11.7421875 C110.49816362 9.79255816 115.48957609 7.82595079 120.375 5.25 C124.34401732 3.18118215 127.54416302 2.29059806 132 2 C132 1.34 132 0.68 132 0 C135.3 0 138.6 0 142 0 C142 0.66 142 1.32 142 2 C143.36125 2.37125 143.36125 2.37125 144.75 2.75 C148.34346958 4.13210369 149.72473515 4.91673688 152 8 C152.59430909 10.97573482 152.56058064 13.90319624 152.53125 16.9296875 C152.5350769 17.79763947 152.53890381 18.66559143 152.54284668 19.55984497 C152.54556543 21.39391236 152.53820674 23.22801855 152.52148438 25.06201172 C152.50012498 27.85863578 152.52125932 30.65267584 152.546875 33.44921875 C152.5442307 35.23438064 152.53910361 37.01954093 152.53125 38.8046875 C152.53934692 39.63612274 152.54744385 40.46755798 152.55578613 41.32418823 C152.46791576 46.8120859 151.47001676 49.72105927 148 54 C148.64541748 54.31122803 149.29083496 54.62245605 149.95581055 54.94311523 C153.10207412 58.10891849 152.66925571 61.67891942 152.70703125 65.91015625 C152.72271652 66.79223251 152.73840179 67.67430878 152.75456238 68.58311462 C152.77920562 70.45332935 152.79277138 72.32371776 152.79614258 74.1940918 C152.81231582 77.03020295 152.89759879 79.85871655 152.98632812 82.69335938 C153.21422857 97.89515992 153.21422857 97.89515992 147.60546875 104.09375 C146.09073867 105.41953977 144.557991 106.72532758 143 108 C142.13816036 109.1245492 141.29999903 110.26814974 140.5 111.4375 C137.55526356 114.45585485 135.26717093 115.22769214 131.28125 116.34375 C129.11555206 116.966759 127.17105069 117.75117172 125.125 118.6875 C122 120 122 120 119 120 C119 120.66 119 121.32 119 122 C114.545 122.99 114.545 122.99 110 124 C110 124.66 110 125.32 110 126 C106.12315913 127.19287411 103.08378077 128 99 128 C99 128.66 99 129.32 99 130 C98.443125 130.17015625 97.88625 130.3403125 97.3125 130.515625 C93.35631025 131.77198255 89.8142043 133.04745425 86.25 135.1875 C80.87069729 138.06302157 74.92265327 137.32502366 69 137 C69 136.34 69 135.68 69 135 C67.68 134.67 66.36 134.34 65 134 C65 133.34 65 132.68 65 132 C64.34 132 63.68 132 63 132 C59.65885842 126.90377477 58.41273082 123.14712538 58.4699707 117.00097656 C58.46123932 116.23424118 58.45250793 115.4675058 58.44351196 114.67753601 C58.41928377 112.16498906 58.42253671 109.65327326 58.42578125 107.140625 C58.41332744 105.38660288 58.39899082 103.63259321 58.38285828 101.87860107 C58.34492363 97.27664597 58.32965959 92.67490585 58.32006836 88.07281494 C58.30028271 80.69324482 58.24349894 73.3138377 58.19130516 65.93444061 C58.17595915 63.35799217 58.1687692 60.78162524 58.16316223 58.20513916 C58.15614741 56.63057414 58.1490466 55.0560095 58.1418457 53.48144531 C58.14237442 52.76452011 58.14290314 52.04759491 58.14344788 51.3089447 C58.11447617 46.5475762 57.90458157 43.99980068 54.625 40.375 C52.16889166 37.83296941 52.16889166 37.83296941 49 37 C49 36.34 49 35.68 49 35 C48.030625 34.9175 47.06125 34.835 46.0625 34.75 C42.05423748 34.1960125 38.73575886 32.68761352 35.11328125 30.9375 C33.08374199 30.03714987 31.16528955 29.46922753 29 29 C29 28.34 29 27.68 29 27 C24.05 26.01 24.05 26.01 19 25 C19 24.34 19 23.68 19 23 C18.071875 22.855625 17.14375 22.71125 16.1875 22.5625 C13 22 13 22 10 21 C10 20.34 10 19.68 10 19 C9.01 18.896875 8.02 18.79375 7 18.6875 C4.06774114 18.28036599 1.50817088 17.52869556 -1.25 16.45703125 C-1.95640625 16.18479736 -2.6628125 15.91256348 -3.390625 15.63208008 C-3.92171875 15.42349365 -4.4528125 15.21490723 -5 15 C-4.8609223 19.56273224 -4.71256366 24.12511691 -4.5625 28.6875 C-4.52318359 29.98107422 -4.48386719 31.27464844 -4.44335938 32.60742188 C-4.38051758 34.47817383 -4.38051758 34.47817383 -4.31640625 36.38671875 C-4.27974854 37.53358154 -4.24309082 38.68044434 -4.20532227 39.86206055 C-4.02002307 42.69398754 -3.77580077 45.27033063 -3 48 C-0.81571431 49.24267038 -0.81571431 49.24267038 2 50 C3.19625 50.515625 4.3925 51.03125 5.625 51.5625 C8.90487299 53.0131887 8.90487299 53.0131887 12 54 C12 54.66 12 55.32 12 56 C12.83789062 56.11214844 13.67578125 56.22429687 14.5390625 56.33984375 C18.33656234 57.06419756 21.74846508 58.22820885 25.375 59.5625 C26.33599609 59.91344727 26.33599609 59.91344727 27.31640625 60.27148438 C28.8793161 60.84299619 30.43990727 61.42084229 32 62 C32 62.66 32 63.32 32 64 C33.670625 64.2165625 33.670625 64.2165625 35.375 64.4375 C39 65 39 65 41 66 C41 66.66 41 67.32 41 68 C41.639375 68.144375 42.27875 68.28875 42.9375 68.4375 C45 69 45 69 46 70 C46.07226502 71.85287502 46.0838122 73.70833878 46.0625 75.5625 C46.05347656 76.57441406 46.04445313 77.58632812 46.03515625 78.62890625 C46.02355469 79.41136719 46.01195313 80.19382812 46 81 C45.34 81 44.68 81 44 81 C44 81.66 44 82.32 44 83 C39.15311808 82.21824485 34.6233633 80.60155722 30 79 C30 78.34 30 77.68 30 77 C28.6078125 76.9071875 28.6078125 76.9071875 27.1875 76.8125 C22.66470727 76.1820501 18.88974832 74.22851061 14.80078125 72.27734375 C10.94935974 70.52083771 7.03889628 69.25801688 3 68 C3 67.34 3 66.68 3 66 C0.36 65.67 -2.28 65.34 -5 65 C-4.97714723 69.54277223 -4.89975925 74.0830443 -4.8125 78.625 C-4.80669922 79.91019531 -4.80089844 81.19539063 -4.79492188 82.51953125 C-4.84588906 90.16656552 -4.84588906 90.16656552 -1.63671875 96.8359375 C0.86806114 99.15459011 0.86806114 99.15459011 4 100 C4 100.66 4 101.32 4 102 C8.455 102.99 8.455 102.99 13 104 C13 104.66 13 105.32 13 106 C13.56847656 106.10957031 14.13695312 106.21914062 14.72265625 106.33203125 C19.83484409 107.38177934 24.26268682 108.82083594 29 111 C29.99 111.33 30.98 111.66 32 112 C32 112.66 32 113.32 32 114 C32.886875 114.144375 33.77375 114.28875 34.6875 114.4375 C36.3271875 114.7159375 36.3271875 114.7159375 38 115 C38.886875 115.103125 39.77375 115.20625 40.6875 115.3125 C43.73320316 116.21797932 44.3971005 117.28423028 46 120 C46.29296875 122.796875 46.29296875 122.796875 46.1875 125.75 C46.14689453 127.22726563 46.14689453 127.22726563 46.10546875 128.734375 C46.07066406 129.48203125 46.03585938 130.2296875 46 131 C41.28400182 131.92470553 38.32734391 132.22923777 34 130 C34 129.34 34 128.68 34 128 C33.113125 127.855625 32.22625 127.71125 31.3125 127.5625 C28.52882354 127.08980022 25.76516243 126.56929815 23 126 C23 125.34 23 124.68 23 124 C20.03 123.34 17.06 122.68 14 122 C14 121.34 14 120.68 14 120 C13.43152344 119.89042969 12.86304688 119.78085938 12.27734375 119.66796875 C7.16515591 118.61822066 2.73731318 117.17916406 -2 115 C-3.485 114.505 -3.485 114.505 -5 114 C-6.6484375 112.36328125 -6.6484375 112.36328125 -8.375 110.3125 C-9.28572266 109.23355469 -9.28572266 109.23355469 -10.21484375 108.1328125 C-11.09849609 107.07707031 -11.09849609 107.07707031 -12 106 C-12.51691406 105.41992188 -13.03382812 104.83984375 -13.56640625 104.2421875 C-17 100.34882479 -17 100.34882479 -17 97 C-17.66 97 -18.32 97 -19 97 C-20.1323081 93.37481498 -20.12928795 89.96984125 -20.1328125 86.1875 C-20.13376923 85.53676514 -20.13472595 84.88603027 -20.13571167 84.21557617 C-20.13639018 82.84391177 -20.13455887 81.47224411 -20.13037109 80.10058594 C-20.12501812 78.00708774 -20.13032716 75.91380407 -20.13671875 73.8203125 C-20.13605791 72.48437453 -20.13477663 71.14843669 -20.1328125 69.8125 C-20.13168457 68.60207031 -20.13055664 67.39164062 -20.12939453 66.14453125 C-20.02291165 63.55679636 -19.76686877 61.45519851 -19 59 C-18.34 59 -17.68 59 -17 59 C-16.67 58.01 -16.34 57.02 -16 56 C-15.34 55.34 -14.68 54.68 -14 54 C-14.7425 53.38125 -14.7425 53.38125 -15.5 52.75 C-17 51 -17 51 -17 47 C-17.66 47 -18.32 47 -19 47 C-20.137098 43.36456106 -20.12929635 39.94552087 -20.1328125 36.15234375 C-20.13376923 35.49923721 -20.13472595 34.84613068 -20.13571167 34.17323303 C-20.1363901 32.79737247 -20.13455939 31.42150865 -20.13037109 30.0456543 C-20.12500935 27.94117046 -20.13033187 25.83689919 -20.13671875 23.73242188 C-20.13605808 22.3932287 -20.13477714 21.05403565 -20.1328125 19.71484375 C-20.13168457 18.49917725 -20.13055664 17.28351074 -20.12939453 16.03100586 C-20 13 -20 13 -19 10 C-18.34 10 -17.68 10 -17 10 C-16.896875 9.401875 -16.79375 8.80375 -16.6875 8.1875 C-15.52799946 4.49818011 -13.49684228 3.30488049 -10.25 1.3125 C-6.60240393 -0.16056764 -3.89743311 -0.23384599 0 0 Z " fill="#7DB200" transform="translate(26,34)"/>
<path d="M0 0 C1.23943359 -0.00193359 1.23943359 -0.00193359 2.50390625 -0.00390625 C3.35855469 -0.00003906 4.21320313 0.00382813 5.09375 0.0078125 C6.37572266 0.00201172 6.37572266 0.00201172 7.68359375 -0.00390625 C8.50988281 -0.00261719 9.33617187 -0.00132812 10.1875 0 C10.93708984 0.00112793 11.68667969 0.00225586 12.45898438 0.00341797 C14.61721905 0.13423503 16.51850391 0.54114409 18.59375 1.1328125 C18.59375 1.7928125 18.59375 2.4528125 18.59375 3.1328125 C19.521875 3.1946875 20.45 3.2565625 21.40625 3.3203125 C25.92904273 3.9507624 29.70400168 5.90430189 33.79296875 7.85546875 C37.64439026 9.61197479 41.55485372 10.87479562 45.59375 12.1328125 C45.59375 12.7928125 45.59375 13.4528125 45.59375 14.1328125 C47.90375 14.4628125 50.21375 14.7928125 52.59375 15.1328125 C53.08875 16.6178125 53.08875 16.6178125 53.59375 18.1328125 C54.25375 18.1328125 54.91375 18.1328125 55.59375 18.1328125 C55.59375 18.7928125 55.59375 19.4528125 55.59375 20.1328125 C54.93375 20.1328125 54.27375 20.1328125 53.59375 20.1328125 C53.59375 20.7928125 53.59375 21.4528125 53.59375 22.1328125 C50.62375 22.7928125 47.65375 23.4528125 44.59375 24.1328125 C44.59375 24.7928125 44.59375 25.4528125 44.59375 26.1328125 C39.07146408 26.47091164 35.56903695 25.47964597 30.59375 23.1328125 C29.27098944 22.75972619 27.94142923 22.40234835 26.59375 22.1328125 C26.59375 21.4728125 26.59375 20.8128125 26.59375 20.1328125 C25.97886719 20.01164062 25.36398438 19.89046875 24.73046875 19.765625 C23.92222656 19.59804688 23.11398438 19.43046875 22.28125 19.2578125 C21.48074219 19.09539063 20.68023437 18.93296875 19.85546875 18.765625 C17.59375 18.1328125 17.59375 18.1328125 14.59375 16.1328125 C11.87691948 15.88103726 9.31110138 15.7530918 6.59375 15.7578125 C5.45558838 15.75587891 5.45558838 15.75587891 4.29443359 15.75390625 C-1.39690547 15.86012848 -6.07173243 16.9248542 -11.3046875 19.2578125 C-13.40625 20.1328125 -13.40625 20.1328125 -16.40625 20.1328125 C-16.40625 20.7928125 -16.40625 21.4528125 -16.40625 22.1328125 C-17.11652344 22.33777344 -17.82679687 22.54273437 -18.55859375 22.75390625 C-19.47769531 23.02332031 -20.39679688 23.29273437 -21.34375 23.5703125 C-22.26027344 23.83714844 -23.17679688 24.10398437 -24.12109375 24.37890625 C-26.3464993 24.92307301 -26.3464993 24.92307301 -27.40625 26.1328125 C-29.73922433 26.17374187 -32.07330225 26.17522973 -34.40625 26.1328125 C-34.40625 25.4728125 -34.40625 24.8128125 -34.40625 24.1328125 C-38.86125 23.1428125 -38.86125 23.1428125 -43.40625 22.1328125 C-43.40625 21.4728125 -43.40625 20.8128125 -43.40625 20.1328125 C-44.06625 20.1328125 -44.72625 20.1328125 -45.40625 20.1328125 C-45.40625 19.4728125 -45.40625 18.8128125 -45.40625 18.1328125 C-44.74625 18.1328125 -44.08625 18.1328125 -43.40625 18.1328125 C-43.07625 17.1428125 -42.74625 16.1528125 -42.40625 15.1328125 C-38.94125 14.6378125 -38.94125 14.6378125 -35.40625 14.1328125 C-35.40625 13.4728125 -35.40625 12.8128125 -35.40625 12.1328125 C-34.76558594 11.96265625 -34.12492187 11.7925 -33.46484375 11.6171875 C-29.2872537 10.44671518 -25.39278225 9.31223185 -21.65625 7.0703125 C-17.12539738 4.36922728 -13.68584729 3.1328125 -8.40625 3.1328125 C-8.40625 2.4728125 -8.40625 1.8128125 -8.40625 1.1328125 C-5.53599329 0.31448053 -2.98118861 0.00448588 0 0 Z " fill="#7DB200" transform="translate(87.40625,5.8671875)"/>
<path d="M0 0 C1.32 0.33 2.64 0.66 4 1 C4.33 2.65 4.66 4.3 5 6 C5.99 6.33 6.98 6.66 8 7 C8 7.66 8 8.32 8 9 C5.125 9.625 5.125 9.625 2 10 C0 8 0 8 -0.1953125 6.0546875 C-0.13020833 4.03645833 -0.06510417 2.01822917 0 0 Z " fill="#8AB925" transform="translate(113,58)"/>
<path d="M0 0 C0.99 0 1.98 0 3 0 C2.67 0.99 2.34 1.98 2 3 C1.84970012 5.06362991 1.75155552 7.13123915 1.68359375 9.19921875 C1.64169922 10.40771484 1.59980469 11.61621094 1.55664062 12.86132812 C1.51732422 14.12396484 1.47800781 15.38660156 1.4375 16.6875 C1.39431641 17.96173828 1.35113281 19.23597656 1.30664062 20.54882812 C1.2004514 23.69910852 1.09840467 26.84946839 1 30 C1.66 30 2.32 30 3 30 C3 30.66 3 31.32 3 32 C2.01 32 1.02 32 0 32 C0 21.44 0 10.88 0 0 Z " fill="#88BD0D" transform="translate(175,95)"/>
<path d="M0 0 C1.65 0 3.3 0 5 0 C4.67 1.32 4.34 2.64 4 4 C1.69 4 -0.62 4 -3 4 C-3 3.34 -3 2.68 -3 2 C-2.01 2 -1.02 2 0 2 C0 1.34 0 0.68 0 0 Z " fill="#BFDB85" transform="translate(154,98)"/>
<path d="M0 0 C0.33 0.66 0.66 1.32 1 2 C1.66 2.33 2.32 2.66 3 3 C0.36 3.33 -2.28 3.66 -5 4 C-5 3.34 -5 2.68 -5 2 C-3.35 1.34 -1.7 0.68 0 0 Z " fill="#8FC036" transform="translate(150,100)"/>
<path d="" fill="#000000" transform="translate(0,0)"/>
</svg>
